/* XPM */
static char * simple_xpm[] = {
"16 16 4 1",
" 	c None",
".	c #000686",
"+	c #FFFFFF",
"#	c #889CC1",
"............    ",
".+++++++++++.   ",
".++++++++++++.  ",
".++++.....++++. ",
".+++.#####.+++. ",
".++.####+##.++. ",
".++.###+++#.++. ",
".++.####+##.++. ",
".++.#######.++. ",
".++.#######.++. ",
".+++.#####.+++. ",
".++++.....++++. ",
".+++++++++++++. ",
".+++++++++++++. ",
" .............  ",
"                "};
